PathFileType	4	(X/Y/Z)	c:/Users/goper/Files/vsCode/490R/osim_files/C12/C12_SSWS_01.trc
DataRate	CameraRate	NumFrames	NumMarkers	Units                	OrigDataRate	OrigDataStartFrame	OrigNumFrames
120.00	120.00	4	36	mm	120.0	878	1404
                Frame#	Time	LPSIS			LASIS			LTH1			LTH2			LTH3			LTH4			LLFE			LMFE			LSH1			LSH2			LSH3			LSH4			LLMAL			LMMAL			LCAL			LMTP5			LTOE			LMTP1			RPSIS			RASIS			RTH1			RTH2			RTH3			RTH4			RLFE			RMFE			RSH1			RSH2			RSH3			RSH4			RLMAL			RMMAL			RCAL			RMTP1			RTOE			RMTP5		
		X1	Y1	Z1	X2	Y2	Z2	X3	Y3	Z3	X4	Y4	Z4	X5	Y5	Z5	X6	Y6	Z6	X7	Y7	Z7	X8	Y8	Z8	X9	Y9	Z9	X10	Y10	Z10	X11	Y11	Z11	X12	Y12	Z12	X13	Y13	Z13	X14	Y14	Z14	X15	Y15	Z15	X16	Y16	Z16	X17	Y17	Z17	X18	Y18	Z18	X19	Y19	Z19	X20	Y20	Z20	X21	Y21	Z21	X22	Y22	Z22	X23	Y23	Z23	X24	Y24	Z24	X25	Y25	Z25	X26	Y26	Z26	X27	Y27	Z27	X28	Y28	Z28	X29	Y29	Z29	X30	Y30	Z30	X31	Y31	Z31	X32	Y32	Z32	X33	Y33	Z33	X34	Y34	Z34	X35	Y35	Z35	X36	Y36	Z36

878	7.30833	-1058.09412	1080.40833	299.90961	-1233.75452	1044.67920	362.65692	-1222.58508	766.80768	428.25912	-1244.82678	726.75812	427.94690	-1277.99036	792.59985	434.04553	-1291.78076	748.41968	432.73367	-1341.58655	573.87683	397.76831	-1357.85815	568.92151	272.98727	-1265.09937	494.99161	408.31824	-1252.07117	449.94550	414.80557	-1321.85144	473.55045	410.38422	-1300.39490	430.27487	412.66840	-1179.31165	162.32858	364.69351	-1204.48962	162.82162	289.17227	-1119.82446	156.26932	314.75204	-1279.63342	59.23999	402.47339	-1346.71423	76.17758	344.29465	-1315.40601	54.83160	298.93878	-1053.58240	1083.67407	186.43060	-1237.83325	1048.78040	107.70362	-1123.60107	762.41559	61.43443	-1124.71692	717.93451	69.96313	-1186.64380	757.74384	64.70619	-1179.14905	711.27161	71.67890	-1112.63086	539.23584	113.57069	-1114.06238	542.53778	246.56216	-1040.81848	448.68204	94.45358	-1038.00159	406.10190	90.45158	-1102.29663	436.15051	103.37195	-1089.65686	395.55963	95.47241	-1017.28436	116.30908	142.55141	-1033.93542	126.95497	223.93698	-941.86816	85.37695	181.21812	-1151.56409	47.60393	222.94305	-1196.41309	63.53381	191.21284	-1159.26001	39.62073	114.60813
879	7.31667	-1067.32361	1079.59106	300.74866	-1242.29822	1043.68835	362.26810	-1233.53076	766.21973	427.87991	-1255.73108	726.17273	427.15076	-1288.79785	792.05975	433.52295	-1302.56641	747.80902	431.78836	-1352.95312	573.69952	395.92987	-1368.10754	569.21924	271.27240	-1279.31689	491.57956	407.40686	-1268.45911	445.94574	414.23392	-1337.05945	472.46384	408.83597	-1317.03516	428.07574	411.61594	-1209.85132	154.96080	366.12207	-1235.04797	155.84688	289.42917	-1149.67554	146.29213	316.38608	-1316.44568	57.58580	403.16959	-1382.16394	77.78022	344.51086	-1351.84070	54.33883	299.44138	-1062.74915	1082.88965	187.39627	-1245.51404	1047.38721	107.55555	-1129.26526	762.18518	61.44020	-1130.35547	717.42340	70.41043	-1192.21289	756.62000	64.97626	-1184.10803	710.35901	71.90538	-1114.89917	539.17346	113.75060	-1116.59851	542.34198	246.58386	-1042.55627	449.04880	94.67234	-1039.52136	406.46838	90.78515	-1103.95874	436.27740	103.49906	-1091.06726	395.77563	95.62835	-1017.70264	116.78835	142.74463	-1034.30615	127.32242	224.12645	-942.25372	86.10915	181.42365	-1151.79041	47.51008	222.99646	-1196.26453	63.42534	191.18079	-1159.21045	39.56021	114.65125
880	7.32500	-1076.83459	1078.59570	301.67303	-1252.58679	1042.71191	362.17822	-1243.46936	764.89856	426.96704	-1266.41223	725.16199	426.25833	-1299.82715	791.22992	433.19205	-1313.05017	746.64307	430.75687	-1363.79370	572.98291	394.07196	-1378.04382	568.84442	269.36063	-1292.78186	487.91782	406.45905	-1284.86768	441.63696	413.49811	-1352.30750	471.23395	407.66202	-1333.45190	425.70853	410.67987	-1241.20056	147.57420	366.69537	-1265.02393	149.29910	288.24673	-1180.52039	135.27399	317.15930	-1352.36804	56.65088	404.01572	-1417.34692	80.61086	344.22433	-1388.29492	55.01015	300.08923	-1071.92847	1081.94409	188.44467	-1253.66492	1045.75378	107.50085	-1134.83228	761.79199	61.46138	-1135.32642	717.06390	70.55718	-1197.73596	755.45587	65.16709	-1189.10925	709.25214	72.17883	-1117.22937	539.04309	113.98553	-1119.16907	542.00775	246.77020	-1044.24646	449.39474	94.90800	-1040.98181	406.74310	91.04466	-1105.44226	436.27362	103.75393	-1092.49329	395.89352	95.86114	-1018.08911	117.17411	142.96407	-1034.70007	127.61660	224.44104	-942.56042	86.60741	181.71570	-1152.09705	47.44390	222.76729	-1196.42419	63.26137	191.24217	-1159.17261	39.52658	114.65659
881	7.33333	-1086.28821	1077.53394	302.64023	-1261.08289	1041.27502	362.01562	-1255.13245	763.84534	428.56198	-1276.65942	723.82208	425.32913	-1310.06421	789.84491	432.56708	-1323.24744	745.08057	429.66620	-1374.09619	571.87769	392.23129	-1387.80908	568.13898	267.76318	-1306.88367	483.76144	405.49106	-1300.68188	436.86411	412.05655	-1366.90747	469.86624	406.40442	-1351.88965	425.49203	409.49734	-1272.69556	140.78740	367.39761	-1296.00085	143.77048	288.81058	-1213.51978	123.99781	317.66037	-1390.34509	56.56499	404.25269	-1452.28040	83.27544	344.09131	-1424.54993	56.21894	300.26175	-1081.52051	1080.51270	189.56516	-1263.14075	1044.34009	107.24588	-1140.52454	761.22699	61.63192	-1140.30713	716.59943	70.68997	-1203.21851	754.25342	65.30161	-1193.89673	708.10968	72.33123	-1119.68799	538.81006	114.21471	-1121.83838	541.71082	246.96521	-1045.94385	449.61273	95.26008	-1042.51672	407.06042	91.35191	-1107.15405	436.31973	103.87597	-1093.93018	395.90347	96.07565	-1018.37732	117.63033	143.18478	-1035.13904	127.86765	224.77214	-942.76978	87.31315	182.00087	-1152.23376	47.22079	222.89859	-1196.56201	63.08825	191.27405	-1159.17249	39.48615	114.67003
